<svg xmlns="http://www.w3.org/2000/svg" version="1.1" xmlns:xlink="http://www.w3.org/1999/xlink" xmlns:svgjs="http://svgjs.dev/svgjs" width="1000" height="623" viewBox="0 0 1000 623"><g transform="matrix(1,0,0,1,-0.6060606060606233,106.97533214738479)"><svg viewBox="0 0 396 247" data-background-color="#ff0000" preserveAspectRatio="xMidYMid meet" height="623" width="1000" xmlns="http://www.w3.org/2000/svg" xmlns:xlink="http://www.w3.org/1999/xlink"><g id="tight-bounds" transform="matrix(1,0,0,1,0.2400000000000091,-0.09999999999999432)"><svg viewBox="0 0 395.52 247.2" height="247.2" width="395.52"><g><svg></svg></g><g><svg viewBox="0 0 395.52 247.2" height="247.2" width="395.52"><g transform="matrix(1,0,0,1,77.64547439638496,47.215199999999996)"><svg viewBox="0 0 240.22905120723007 152.7696" height="152.7696" width="240.22905120723007"><g><svg viewBox="0 0 240.22905120723007 152.7696" height="152.7696" width="240.22905120723007"><g><svg viewBox="0 0 244.43135999999998 155.44198716600576" height="152.7696" width="240.22905120723007"><g><svg viewBox="0 0 244.43135999999998 155.44198716600576" height="155.44198716600576" width="244.43135999999998"><g id="textblocktransform"><svg viewBox="0 0 244.43135999999998 155.44198716600576" height="155.44198716600576" width="244.43135999999998" id="textblock"><g><svg viewBox="0 0 244.43135999999998 107.43347944481162" height="107.43347944481162" width="244.43135999999998"><g transform="matrix(1,0,0,1,0,0)"><svg width="244.43135999999998" viewBox="2.200000047683716 -33.25 75.6500015258789 33.25" height="107.43347944481162" data-palette-color="#ffffff"><path d="M18.9 0L2.2 0 2.2-0.8 6.45-2.85 6.45-30.15 2.2-32.2 2.2-33 19.25-33Q25.2-33 29.35-31.05 33.5-29.1 35.68-25.7 37.85-22.3 37.85-18L37.85-18Q37.85-14.1 36.43-10.8 35-7.5 32.45-5.1 29.9-2.7 26.45-1.35 23 0 18.9 0L18.9 0ZM17.2-30.25L17.2-30.25 14-30.25 14-2.75 17.9-2.75Q23.7-2.75 26.85-6.48 30-10.2 30-16.45L30-16.45Q30-22.75 26.78-26.5 23.55-30.25 17.2-30.25ZM51.9 0L41.05 0 41.05-0.8 44.1-2.5 57.15-33.25 61.55-33.25 74.45-2.6 77.85-0.8 77.85 0 62.05 0 62.05-0.8 66.4-2.6 63-10.9 51.15-10.9 47.75-2.6 51.9-0.8 51.9 0ZM57.1-25.3L52.3-13.65 61.85-13.65 57.1-25.3Z" opacity="1" transform="matrix(1,0,0,1,0,0)" fill="#ffffff" class="undefined-text-0" data-fill-palette-color="primary" id="text-0"></path></svg></g></svg></g><g transform="matrix(1,0,0,1,0,132.79594553822497)"><svg viewBox="0 0 244.43135999999998 22.64604162778079" height="22.64604162778079" width="244.43135999999998"><g transform="matrix(1,0,0,1,0,0)"><svg width="244.43135999999998" viewBox="3 -33.650001525878906 368.57000732421875 34.150001525878906" height="22.64604162778079" data-palette-color="#ffffff"><path d="M9.6 0L3 0 3-32.75 9.7-32.75Q13.4-32.75 15.78-32.02 18.15-31.3 19.8-29.45 21.45-27.6 22.18-24.43 22.9-21.25 22.9-16.38 22.9-11.5 22.1-8.28 21.3-5.05 19.55-3.25 17.8-1.45 15.45-0.73 13.1 0 9.6 0L9.6 0ZM15.58-3.6Q17.7-4.7 18.82-7.73 19.95-10.75 19.95-16.38 19.95-22 18.85-25.03 17.75-28.05 15.65-29.15 13.55-30.25 9.7-30.25L9.7-30.25 5.75-30.25 5.75-2.5 9.6-2.5Q13.45-2.5 15.58-3.6ZM35.9-2.15L35.9-2.15Q37.75-2.15 39.92-3.33 42.1-4.5 43.1-5.5L43.1-5.5 43.1-11.45Q39.8-11.7 36.8-11.7 33.8-11.7 32.3-10.43 30.8-9.15 30.8-7L30.8-7Q30.8-2.15 35.9-2.15ZM35.85 0.45L35.85 0.45Q32.2 0.45 30.1-1.43 28-3.3 28-6.75 28-10.2 30.3-12.1L30.3-12.1Q32.6-14.05 36.4-14.05 40.2-14.05 43.1-13.75L43.1-13.75Q43.1-18.2 42-19.83 40.9-21.45 37.55-21.45 34.2-21.45 29.65-19.85L29.65-19.85 28.9-22.35Q33.55-24.05 37.3-24.05L37.3-24.05Q42.25-24.05 44-21.85 45.75-19.65 45.75-14.15L45.75-14.15 45.75-3.65 46.15 0.15 43.6 0.4 43.1-2.6Q41.95-1.6 39.85-0.58 37.75 0.45 35.85 0.45ZM59-2.5L59-21.25 54.25-21.25 54.25-23.75 59-23.75Q59-33.65 66.34-33.65L66.34-33.65Q68.75-33.65 71.65-32.8L71.65-32.8 71.05-30.25Q68.25-31.05 66.45-31.05L66.45-31.05Q63.85-31.05 62.75-29.3 61.65-27.55 61.65-23.75L61.65-23.75 70.7-23.75 70.7-21.25 61.65-21.25 61.65-2.5 70.8-2.5 70.8 0 54.05 0 54.05-2.5 59-2.5ZM83.99-2.5L83.99-21.25 79.24-21.25 79.24-23.75 83.99-23.75Q83.99-33.65 91.34-33.65L91.34-33.65Q93.74-33.65 96.64-32.8L96.64-32.8 96.04-30.25Q93.24-31.05 91.44-31.05L91.44-31.05Q88.84-31.05 87.74-29.3 86.64-27.55 86.64-23.75L86.64-23.75 95.69-23.75 95.69-21.25 86.64-21.25 86.64-2.5 95.79-2.5 95.79 0 79.04 0 79.04-2.5 83.99-2.5ZM110.89-2.15L110.89-2.15Q112.74-2.15 114.92-3.33 117.09-4.5 118.09-5.5L118.09-5.5 118.09-11.45Q114.79-11.7 111.79-11.7 108.79-11.7 107.29-10.43 105.79-9.15 105.79-7L105.79-7Q105.79-2.15 110.89-2.15ZM110.84 0.45L110.84 0.45Q107.19 0.45 105.09-1.43 102.99-3.3 102.99-6.75 102.99-10.2 105.29-12.1L105.29-12.1Q107.59-14.05 111.39-14.05 115.19-14.05 118.09-13.75L118.09-13.75Q118.09-18.2 116.99-19.83 115.89-21.45 112.54-21.45 109.19-21.45 104.64-19.85L104.64-19.85 103.89-22.35Q108.54-24.05 112.29-24.05L112.29-24.05Q117.24-24.05 118.99-21.85 120.74-19.65 120.74-14.15L120.74-14.15 120.74-3.65 121.14 0.15 118.59 0.4 118.09-2.6Q116.94-1.6 114.84-0.58 112.74 0.45 110.84 0.45ZM153.74 0L150.84 0 160.24-32.75 165.04-32.75 174.09 0 171.14 0 169.09-7.55 155.84-7.55 153.74 0ZM156.54-10.05L168.44-10.05 163.04-30.25 162.19-30.25 156.54-10.05ZM186.38-30.75L180.43-30.7 180.38-33.15 189.03-33.2 189.03-2.5 195.13-2.5 195.13 0 180.23 0 180.23-2.5 186.38-2.5 186.38-30.75ZM203.33-11.85Q203.33-17.6 205.71-20.83 208.08-24.05 212.63-24.05 217.18-24.05 219.41-21.05 221.63-18.05 221.63-13.05L221.63-13.05 221.48-10.55 206.18-10.55Q206.43-6.8 208.18-4.48 209.93-2.15 213.01-2.15 216.08-2.15 220.23-3.6L220.23-3.6 220.98-1.1Q216.93 0.45 213.38 0.45L213.38 0.45Q208.48 0.45 205.91-2.83 203.33-6.1 203.33-11.85ZM212.83-21.5L212.83-21.5Q206.53-21.5 206.18-13.05L206.18-13.05 218.78-13.05Q218.78-21.5 212.83-21.5ZM235.78-12.05L227.98-23.75 231.43-23.75 237.48-13.95 243.48-23.75 246.83-23.75 239.33-12.05 247.28 0 243.88 0 237.48-10.15 231.13 0 227.73 0 235.78-12.05ZM260.88-2.15L260.88-2.15Q262.73-2.15 264.9-3.33 267.08-4.5 268.08-5.5L268.08-5.5 268.08-11.45Q264.78-11.7 261.78-11.7 258.78-11.7 257.28-10.43 255.78-9.15 255.78-7L255.78-7Q255.78-2.15 260.88-2.15ZM260.83 0.45L260.83 0.45Q257.18 0.45 255.08-1.43 252.98-3.3 252.98-6.75 252.98-10.2 255.28-12.1L255.28-12.1Q257.58-14.05 261.38-14.05 265.18-14.05 268.08-13.75L268.08-13.75Q268.08-18.2 266.98-19.83 265.88-21.45 262.53-21.45 259.18-21.45 254.63-19.85L254.63-19.85 253.88-22.35Q258.53-24.05 262.28-24.05L262.28-24.05Q267.23-24.05 268.98-21.85 270.73-19.65 270.73-14.15L270.73-14.15 270.73-3.65 271.13 0.15 268.58 0.4 268.08-2.6Q266.93-1.6 264.83-0.58 262.73 0.45 260.83 0.45ZM278.77-23.75L281.32-23.75 281.42-21.75Q286.27-24.05 289.47-24.05 292.67-24.05 294.5-21.85 296.32-19.65 296.32-15.85L296.32-15.85 296.32 0 293.67 0 293.67-15.85Q293.67-18.3 292.47-19.9L292.47-19.9Q291.27-21.45 288.87-21.45 286.47-21.45 281.42-19.25L281.42-19.25 281.42 0 278.77 0 278.77-23.75ZM318.72-33.2L321.37-33.2 321.37-4.15 321.87 0.2 319.32 0.5 318.82-2.15Q315.07 0.45 311.92 0.45L311.92 0.45Q307.47 0.45 305-2.85 302.52-6.15 302.52-11.83 302.52-17.5 305.27-20.78 308.02-24.05 312.77-24.05L312.77-24.05Q315.57-24.05 318.72-22.7L318.72-22.7 318.72-33.2ZM305.37-11.9Q305.37-7.5 307.1-4.83 308.82-2.15 312.07-2.15 315.32-2.15 318.72-5L318.72-5 318.72-20Q317.67-20.5 315.85-20.98 314.02-21.45 312.87-21.45L312.87-21.45Q309.32-21.45 307.35-18.88 305.37-16.3 305.37-11.9ZM328.32-11.85Q328.32-17.6 330.69-20.83 333.07-24.05 337.62-24.05 342.17-24.05 344.39-21.05 346.62-18.05 346.62-13.05L346.62-13.05 346.47-10.55 331.17-10.55Q331.42-6.8 333.17-4.48 334.92-2.15 337.99-2.15 341.07-2.15 345.22-3.6L345.22-3.6 345.97-1.1Q341.92 0.45 338.37 0.45L338.37 0.45Q333.47 0.45 330.89-2.83 328.32-6.1 328.32-11.85ZM337.82-21.5L337.82-21.5Q331.52-21.5 331.17-13.05L331.17-13.05 343.77-13.05Q343.77-21.5 337.82-21.5ZM359.22-21.25L354.52-21.25 354.52-23.75 361.87-23.75 361.97-20.85Q363.57-21.85 366.47-22.85 369.37-23.85 371.57-24.05L371.57-24.05 371.57-21.1Q369.52-20.95 366.49-20.1 363.47-19.25 361.97-18.35L361.97-18.35 361.97-2.5 369.97-2.5 369.97 0 354.52 0 354.52-2.5 359.22-2.5 359.22-21.25Z" opacity="1" transform="matrix(1,0,0,1,0,0)" fill="#ffffff" class="undefined-text-1" data-fill-palette-color="secondary" id="text-1"></path></svg></g></svg></g></svg></g></svg></g><g></g></svg></g></svg></g></svg></g><g><path d="M133.235 22.289A120.115 120.115 0 0 1 262.285 22.289L252.764 22.289A110.593 110.593 0 0 0 142.756 22.289L133.235 22.289M133.235 224.911A120.115 120.115 0 0 0 262.285 224.911L252.764 224.911A110.593 110.593 0 0 1 142.756 224.911L133.235 224.911" fill="#ffffff" stroke="transparent" data-fill-palette-color="tertiary"></path></g></svg></g><defs></defs></svg><rect width="395.52" height="247.2" fill="none" stroke="none" visibility="hidden"></rect></g></svg></g></svg>